<?xml version="1.0" encoding="UTF-8"?>
<svg id="Layer_2" xmlns="http://www.w3.org/2000/svg" version="1.1" viewBox="0 0 1024 1983">
  <!-- Generator: Adobe Illustrator 29.1.0, SVG Export Plug-In . SVG Version: 2.1.0 Build 142)  -->
  <defs>
    <style>
      .st0 {
        fill: #fff;
      }
    </style>
  </defs>
  <path d="M1024,473.1v105.3c-44.4-16.5-76.5,4.5-98.7,41.7-45.7,76.4-27.6,176.7-89.3,253.5-80.3,99.9-240.4,45.5-347.3,54-71.4,5.7-97.7,102.9-113.6,159.7-14.2,50.7-34.7,130.8-19.7,181.5s99,107.8,141.5,147.1c85.2,78.8,110.1,151.7,84.1,267.6-20.6,91.8-87.1,247.2-207.2,175.9-81.7-48.5-126.9-179.2-137.6-268.9-6.4-53.6-2.8-100-.2-153.1,4.5-90.5,7.8-130.2-53.4-201.2-28.5-33-65.1-69.7-95.9-101.3-25.6-26.3-56.5-50.5-86.7-71.3v-223.9c2.5-.8,3-2.6,4-4.6,44.8-86.5,76.6-188.2,200-152,93.3,27.3,173.8,163.5,263.1,37.9,70.4-98.9,94.9-231.5,157.9-335.3,39.6-65.2,71.3-81.5,140.1-39.6,71.5,43.5,119.5,82.2,201.8,110.2s38,11.6,57,17ZM771.5,508.2c-32.4-30.7-81.4-43.5-115.6-7.9-40.7,42.4-87.5,167.1-93.1,225.5-7.4,77,38.1,125.8,116.3,118.9,143.4-12.5,183.5-250.1,92.4-336.5ZM265.8,816.4c-136.9-128.3-235.5,42.4-186.5,172.4,18.8,50,83.8,138.7,144,133.3,62.2-5.6,94.8-108.7,98-160.6,3.9-61.8-10.8-103.2-55.5-145.1ZM465.9,1498.7c-57.6-59.3-138.9-77.7-162.9,21.6-17.8,73.7,12.1,196.1,79.8,238.1,83.1,51.6,131.6-56.3,134.6-123.8,2.4-53.9-14.3-97.7-51.5-135.9Z"/>
  <path d="M1024,582.4v113.3c-26.7,9-39,31.1-48.9,55.7-29.6,74.1-23.5,156.9-81.8,219.1-73.4,78.1-182.5,38.8-275.3,43.7-170.3,9-207.9,195.9-102,308.6,32.7,34.8,112.8,96.2,161.3,63.9,26.9-18,62.4-83.8,81.9-112.7,45.8-68.1,98.9-145.1,161.5-198.4,30.8-26.2,64.3-48,103.3-60v105.3c-29.3,5.7-56.2,15.1-81.2,31.4-89.8,58.6-164.7,200-156.1,307.7,6.8,85,84.9,178.9,130.4,249.5,38.9,60.3,74.6,122.6,106.9,187v86.6h-98.7l-1.5-49.8c-9.5-89.1-72.3-214.2-141.2-272-102.5-86-131.8,56.3-160.7,127.2-28,68.5-63.7,134-106,194.6h-160c-22.7-44.5-55.8-82.7-82.4-124.9-49.7-78.8-76-152.6-89.4-245.1-18.7-129.3-5.7-257.9-102.8-359.7-20.2-21.2-50.8-46.3-81.4-45.9v-139.9c31.3,21.8,61.6,46.5,88.1,73.9,28.7,29.7,62.4,63.1,89.2,93.7,73.8,84.5,57.5,130.6,53.5,235.5-4.7,123.8,14,270,105.2,362.5,143.5,145.4,242.6-66.5,255.9-190.8,12.1-113.3-30.1-174.4-110.5-245.1s-133.7-88-128.1-185.3,37.7-190.9,70.4-238.8c28.9-42.3,59.7-43.2,107.7-41.7,89.3,2.7,200.6,27.2,278.9-29,66.4-47.7,74.7-136.4,91.4-209.8,13.6-59.8,45.7-137.1,122.3-110.3Z"/>
  <path d="M0,269.2c25.8,11.4,52.9,21.6,81.6,15.6,65.8-13.8,124.2-94,146.4-153.5s24.1-87.5,5.3-130h264.7c20.9,19.6,47.2,36.9,72.8,49.8,45.1,22.8,81.9,30.2,108.3-22,4.5-8.9,7-18.6,10.8-27.8h95.3c-16.1,76.9,6.4,156.2,50.1,219.8,32.8,47.7,84.6,97.6,139.9,117.4,15.7,5.6,31.9,10.1,48.7,10.6v119.9c-23-6.7-46.1-13.3-68.7-21.3-75.1-26.7-121.7-64.4-187.4-104.5-80.2-48.9-112.4-18.9-153.4,54.3s-83.6,230.7-152,323.8c-75.7,103.1-147,12.8-225.1-27.8-132-68.6-186.1,29.7-234,134.1-.9,1.9.3,4.7-3.4,3.9v-134.6c2.4-.8,2.8-3,3.7-5,18.9-41.3,59.4-128.3,110.5-132.1,28.5-2.1,51.8,10.9,76.1,23.6,84,43.9,171.9,122.6,255.1,28.9,49.2-55.4,94.6-186.5,114.2-259,25-92.4,27.7-144.8-40.2-217-31.4-33.3-99.8-88.8-148.3-70.1-43.8,16.9-85.6,103.3-110.5,142.7-27.2,43-57.1,84.7-88.6,124.7-19,24.1-44,57.4-67.3,76.6-37,30.5-72.3-8.4-104.6-26.6v-114.6Z"/>
  <path d="M0,389.1c21.3,10.2,53.4,39.5,77.8,37.2,25.8-2.5,52.7-36.3,68.8-55.2,30.3-35.8,63-79,89.3-117.6,30.1-44.2,87.4-160.6,131.6-181.4,44.6-21,103.5,23.3,135.2,52.4,70,64.4,80.9,115.7,58.9,208.1-18,75.7-70.9,229.7-124.8,284.3-60.9,61.7-119.5,31.9-184.3-2.5s-98.4-63.6-139.6-58.7c-51,6.1-89.5,86.4-109.3,128.1-.9,1.9-.2,4.5-3.5,3.7v-298.5ZM405.8,525.6c59.4-53,101.7-201.1,70.8-275-18-42.9-58.4-63.6-102-42.1-60.1,29.7-143.4,169.1-138.6,235.9,4.2,59.4,73.3,123.8,134.4,103.7,13.7-4.5,25-13.2,35.5-22.5Z"/>
  <path d="M1024,1011.5c-74.7,23.7-132.5,81.7-181.3,140.6-47.4,57.3-82,119.4-124.3,179.6-34.6,49.4-51.8,76.9-116.7,49.1-108.7-46.6-183-180.1-117.5-291.2s285-9.5,397.7-103.5c68.7-57.3,64.5-142.8,91-219.6,9.2-26.7,22.1-57.3,51.1-66.9v311.8ZM584.8,1241.3c38.8,41,86.6,3.5,107.4-35.7,49.8-93.8-82.5-123.7-120.5-52.4-16.3,30.6-10.4,63.4,13,88.1Z"/>
  <path d="M234.7,1983H68c1.4-10.8,1.7-21.8,1.4-32.7-1.5-50.4-19.7-103.9-41.8-148.8-7.5-15.1-16.2-32.8-27.6-45v-394.5c55.7,1.3,84.9,68.7,98,114.6,25.7,90.1,24.5,188.7,49,280.2,21.2,78.9,64.8,148.1,87.6,226.3Z"/>
  <path d="M520,1983c43.8-62.1,79.3-130.1,108-200.5,27.4-67.1,54.2-198.5,150.7-120,80.4,65.5,142.4,204.9,144.1,307.9,0,4.5-1.2,8.3-1.4,12.7h-117.3c13.8-41.5,8.4-80.4-11.3-118.6-21.7-42-54.2-71.9-90.6-22.5-29.9,40.5-48.2,93.5-63.5,141.1h-118.7Z"/>
  <path d="M0,1211.4c24.2-1.7,49.4,17.1,66.7,32.6,111.9,100.1,94.7,248.4,116.1,383.7,16.3,102.8,51.4,177.9,108.6,263.2,20.4,30.5,44.7,58.9,60.5,92.1h-113.3c-6.2-18.6-12.5-37.3-19.7-55.6-21.5-54.2-48.8-103.3-65.2-160-27-93.2-25.8-191.7-50.4-284.2-13.2-49.9-43.1-122.9-103.4-125.3v-146.6Z"/>
  <path d="M1024,1124.8v78.6c-15.6,3.9-31.1,6.7-45.8,13.5-65.1,30-108.3,111.5-116.7,180.5-14.9,123.2,68.2,233.2,162.5,301.7v189.2c-25.4-48.7-51.8-97.1-80.8-143.8-51.9-83.8-147.8-195.1-153.9-294-5.5-88.8,54.3-205.8,117.9-265.9,32.7-30.8,72-52.5,116.7-59.9Z"/>
  <path d="M1024,1308.7c-10.9,2.1-20.5,6-29.2,12.8-53.1,41.4-64.2,109.4-43.4,171.1,13.5,39.9,35,72.7,72.6,93.3v109.3c-95.2-71.6-175.9-177.9-158.3-304.2,8-57.1,43.8-125.9,92.3-158.3,20.5-13.7,41.8-20.7,66-25.3v101.3Z"/>
  <path d="M0,137.3c40.6,33.7,91,39.7,123.2-8.1,24-35.7,26.7-89.1,8.8-127.8h98.7c18.5,45.6,9.2,91.8-8.7,135.9-25.5,62.6-93.8,153.5-170.3,144.9-17.3-2-35.8-10.3-51.7-17v-127.9Z"/>
  <path d="M1024,345.2c-79.3-6-147.9-68.5-189.9-132-35.3-53.3-54.6-117.4-50.1-181.8.7-10,4.2-19.8,4-30h74.7c-4.5,43.4,3.5,87.8,21.1,127.5,24.1,54.6,75.1,109.5,140.2,103v113.3Z"/>
  <path d="M1024,227.9c-62,6.7-111-44.3-135.3-96-19-40.5-26.7-86.1-23.4-130.6h81.3c7.9,45.1,28.7,94.8,77.3,106.6v119.9Z"/>
  <path d="M0,1.3h129.2c7.6,20,11.7,40.5,10.9,62-1.9,47.6-30.8,102.4-85.7,96.2-21.8-2.5-36.9-14.9-54.4-26.3V1.3Z"/>
  <path d="M642.7,1983c8.4-31.8,20.3-63,34.9-92.4s33.4-62.8,48.9-68.4c27-9.8,45.8,14.2,58.2,34.4,19.1,31.1,27.3,66.6,22,103l-6.5,23.5h-157.3Z"/>
  <path d="M1024,1312.7v269.2c-23.2-14-41.5-31.6-54.4-55.6-33.3-61.6-37.8-134.5,12.4-188.3,10.8-11.6,25.8-23.4,42-25.3Z"/>
  <path d="M65.3,1983H0v-221.2c43,64.4,71,142.7,65.3,221.2Z"/>
  <path class="st0" d="M1024,578.4v4c-76.6-26.8-108.7,50.5-122.3,110.3-16.7,73.4-25,162.1-91.4,209.8-78.3,56.2-189.6,31.7-278.9,29-48-1.5-78.8-.5-107.7,41.7-32.7,47.9-67,180.4-70.4,238.8-5.6,97.2,65,129.7,128.1,185.3s122.6,131.7,110.5,245.1c-13.3,124.2-112.4,336.2-255.9,190.8-91.2-92.4-109.9-238.7-105.2-362.5,4-104.9,20.4-151.1-53.5-235.5-26.8-30.6-60.5-64-89.2-93.7-26.5-27.4-56.8-52.2-88.1-73.9v-4c30.3,20.7,61.1,45,86.7,71.3,30.8,31.6,67.4,68.3,95.9,101.3,61.2,71,57.9,110.7,53.4,201.2-2.6,53.1-6.2,99.5.2,153.1,10.7,89.7,55.9,220.4,137.6,268.9,120.1,71.3,186.6-84.1,207.2-175.9,26-115.9,1.1-188.8-84.1-267.6-42.5-39.3-125-91.2-141.5-147.1s5.5-130.9,19.7-181.5c15.9-56.8,42.1-154,113.6-159.7,106.9-8.5,267,46,347.3-54,61.7-76.8,43.6-177.1,89.3-253.5,22.2-37.1,54.4-58.1,98.7-41.7Z"/>
  <path class="st0" d="M0,1.3V0h1024v1.3l-73.3.7c6.7,42.8,27.4,90.7,73.3,101.9v4c-48.7-11.8-69.4-61.6-77.3-106.6h-81.3c-3.4,44.4,4.3,90.1,23.4,130.6,24.3,51.6,73.3,102.6,135.3,96v4c-65.1,6.4-116.1-48.4-140.2-103-17.6-39.7-25.6-84.1-21.1-127.5h-74.7c.2,10.2-3.3,20-4,30-4.5,64.4,14.8,128.5,50.1,181.8,42,63.5,110.6,126.1,189.9,132v4c-16.8-.5-33-5-48.7-10.6-55.2-19.8-107.1-69.7-139.9-117.4-43.7-63.6-66.2-142.9-50.1-219.8h-95.3c-3.8,9.2-6.3,18.9-10.8,27.8-26.4,52.2-63.2,44.8-108.3,22-25.6-13-51.9-30.2-72.8-49.8H233.3c18.8,42.4,10.4,88-5.3,130-22.2,59.5-80.6,139.7-146.4,153.5-28.7,6-55.8-4.2-81.6-15.6v-4c15.9,6.6,34.4,15,51.7,17,76.5,8.6,144.8-82.3,170.3-144.9,17.9-44,27.2-90.3,8.7-135.9h-98.7c17.9,38.8,15.3,92.2-8.8,127.8-32.2,47.8-82.7,41.8-123.2,8.1v-4c17.5,11.4,32.6,23.8,54.4,26.3,54.9,6.2,83.8-48.6,85.7-96.2s-3.3-42-10.9-61.9H0ZM685.3,1.3h-181.3c1.9,2.8,4.8,5.8,7.4,8,21.5,18.1,85.9,56.1,113.3,56.1,33.9,0,54.5-35,60.7-64.1Z"/>
  <path class="st0" d="M0,383.8c32.3,18.2,67.6,57.1,104.6,26.6,23.4-19.2,48.3-52.5,67.3-76.6,31.5-39.9,61.4-81.7,88.6-124.7,24.9-39.4,66.8-125.8,110.5-142.7,48.5-18.7,116.9,36.8,148.3,70.1,67.9,72.1,65.2,124.6,40.2,217-19.6,72.5-65.1,203.6-114.2,259-83.2,93.7-171.1,14.9-255.1-28.9-24.3-12.7-47.6-25.7-76.1-23.6-51,3.8-91.6,90.8-110.5,132.1-.9,2-1.2,4.1-3.7,5v-9.3c3.3.8,2.6-1.8,3.5-3.7,19.7-41.6,58.3-122,109.3-128.1,41.2-4.9,103.2,39.4,139.6,58.7,64.7,34.4,123.4,64.2,184.3,2.5,53.9-54.7,106.8-208.6,124.8-284.3,22-92.4,11.1-143.7-58.9-208.1-31.6-29.1-90.6-73.4-135.2-52.4-44.1,20.8-101.5,137.2-131.6,181.4-26.3,38.6-59,81.8-89.3,117.6-16,18.9-43,52.8-68.8,55.2-24.5,2.3-56.6-26.9-77.8-37.2v-5.3Z"/>
  <path class="st0" d="M1024,699.6c-29,9.6-41.9,40.2-51.1,66.9-26.5,76.8-22.3,162.3-91,219.6-112.8,94-313.9-38.6-397.7,103.5s8.9,244.6,117.5,291.2c64.9,27.8,82,.3,116.7-49.1,42.2-60.2,76.9-122.4,124.3-179.6,48.8-58.9,106.5-117,181.3-140.6v4c-39,12-72.5,33.8-103.3,60-62.6,53.2-115.7,130.2-161.5,198.4-19.5,28.9-55,94.7-81.9,112.7-48.5,32.3-128.6-29-161.3-63.9-105.9-112.7-68.3-299.6,102-308.6,92.8-4.9,201.9,34.4,275.3-43.7,58.4-62.1,52.2-145,81.8-219.1,9.9-24.6,22.2-46.8,48.9-55.7v4Z"/>
  <path d="M1024,1.3v102.6c-46-11.2-66.7-59.1-73.3-101.9l73.3-.7Z"/>
  <path class="st0" d="M1024,469.1v4c-19.1-5.3-38.3-10.6-57-17-82.2-28-130.2-66.7-201.8-110.2-68.8-41.9-100.5-25.5-140.1,39.6-63,103.8-87.5,236.4-157.9,335.3-89.4,125.6-169.9-10.6-263.1-37.9-123.4-36.1-155.3,65.6-200,152-1.1,2-1.6,3.8-4,4.6v-8c3.6.8,2.5-2,3.4-3.9,47.9-104.3,102-202.6,234-134.1,78.1,40.6,149.4,130.9,225.1,27.8,68.4-93.2,95.1-222.4,152-323.8s73.3-103.2,153.4-54.3c65.7,40.1,112.3,77.8,187.4,104.5,22.6,8,45.7,14.6,68.7,21.3Z"/>
  <path class="st0" d="M1024,1120.8v4c-44.7,7.5-84,29.1-116.7,59.9-63.7,60.1-123.4,177-117.9,265.9,6.1,98.9,102,210.2,153.9,294,29,46.7,55.4,95.1,80.8,143.8v8c-32.3-64.4-68.1-126.7-106.9-187-45.5-70.6-123.6-164.5-130.4-249.5-8.6-107.7,66.3-249.1,156.1-307.7,25-16.3,51.9-25.7,81.2-31.4Z"/>
  <path class="st0" d="M0,1207.4c30.6-.3,61.2,24.8,81.4,45.9,97.1,101.8,84,230.4,102.8,359.7,13.4,92.5,39.7,166.3,89.4,245.1,26.6,42.2,59.7,80.4,82.4,124.9h-4c-15.9-33.2-40.1-61.6-60.5-92.1-57.2-85.4-92.4-160.4-108.6-263.2-21.4-135.3-4.2-283.6-116.1-383.7-17.3-15.5-42.5-34.4-66.7-32.6v-4Z"/>
  <path class="st0" d="M516,1983c42.3-60.6,78-126.1,106-194.6,29-70.9,58.2-213.2,160.7-127.2,68.9,57.8,131.7,182.9,141.2,272l1.5,49.8h-4c.2-4.4,1.5-8.1,1.4-12.7-1.7-103-63.6-242.4-144.1-307.9-96.5-78.6-123.3,52.8-150.7,120-28.7,70.4-64.3,138.5-108,200.5h-4Z"/>
  <path class="st0" d="M0,1358c60.3,2.3,90.1,75.4,103.4,125.3,24.5,92.4,23.4,191,50.4,284.2,16.4,56.7,43.7,105.8,65.2,160,7.2,18.2,13.6,36.9,19.7,55.6h-4c-22.8-78.2-66.4-147.4-87.6-226.3-24.6-91.5-23.3-190-49-280.2-13.1-45.9-42.3-113.3-98-114.6v-4Z"/>
  <path class="st0" d="M1024,1207.4c-24.2,4.5-45.5,11.6-66,25.3-48.5,32.4-84.3,101.2-92.3,158.3-17.6,126.2,63.1,232.5,158.3,304.2v4c-94.3-68.5-177.4-178.5-162.5-301.7,8.3-69,51.6-150.5,116.7-180.5s30.2-9.6,45.8-13.5v4Z"/>
  <path class="st0" d="M638.7,1983c15.2-47.6,33.6-100.6,63.5-141.1,36.4-49.3,68.9-19.5,90.6,22.5,19.7,38.2,25.1,77.2,11.3,118.6h-4l6.5-23.5c5.3-36.4-2.9-72-22-103-12.3-20.1-31.2-44.2-58.2-34.4-15.4,5.6-41.3,53.1-48.9,68.4-14.5,29.4-26.5,60.7-34.9,92.4h-4Z"/>
  <path class="st0" d="M1024,1308.7v4c-16.2,1.9-31.2,13.7-42,25.3-50.2,53.9-45.7,126.8-12.4,188.3,13,23.9,31.2,41.6,54.4,55.6v4c-37.6-20.6-59.1-53.4-72.6-93.3-20.8-61.7-9.7-129.7,43.4-171.1,8.7-6.8,18.4-10.7,29.2-12.8Z"/>
  <path class="st0" d="M68,1983h-2.7c5.7-78.5-22.3-156.8-65.3-221.2v-5.3c11.4,12.3,20.2,29.9,27.6,45,22.1,44.9,40.3,98.4,41.8,148.8.3,11,0,21.9-1.4,32.7Z"/>
  <path class="st0" d="M771.5,508.2c91.1,86.5,51,324-92.4,336.5-78.2,6.8-123.7-41.9-116.3-118.9,5.6-58.3,52.4-183.1,93.1-225.5,34.2-35.6,83.2-22.9,115.6,7.9ZM778.1,520.2c-27.3-32.1-77.8-53.1-114.2-22.5-45.1,38-94.6,179-98.6,237.2-4.9,70.6,43.8,111.4,112.6,105.9,137.7-10.9,176.6-230.5,100.2-320.6Z"/>
  <path class="st0" d="M265.8,816.4c44.7,41.9,59.3,83.3,55.5,145.1-3.2,51.9-35.8,155-98,160.6-60.2,5.4-125.1-83.2-144-133.3-49-130.1,49.6-300.7,186.5-172.4ZM171.8,774.6c-89.7.9-113.8,126.6-95.1,195.6,18,66.5,118.7,204.1,191.3,123.2,40.9-45.6,61.5-141,45-199.5-15.3-54.1-82.5-119.9-141.2-119.3Z"/>
  <path class="st0" d="M465.9,1498.7c37.2,38.3,53.8,82,51.5,135.9-3,67.5-51.5,175.4-134.6,123.8-67.7-42-97.6-164.4-79.8-238.1,24-99.3,105.3-80.9,162.9-21.6ZM475.2,1514.7c-31.5-38.6-92.4-86.8-140.8-46.1-49,41.3-34.1,152.2-12.4,205.2,36.2,88.5,126.6,145.2,175.9,29.3,27.4-64.4,21.7-134-22.7-188.4Z"/>
  <path class="st0" d="M405.8,525.6c-10.5,9.4-21.8,18-35.5,22.5-61,20.1-130.1-44.3-134.4-103.7-4.8-66.8,78.5-206.2,138.6-235.9,43.6-21.6,84-.9,102,42.1,30.9,73.9-11.3,222-70.8,275ZM459.3,228.6c-63.6-70.9-134.9,22.2-168.6,74.5-44.2,68.6-83.5,159.3-5.9,220.5,82.5,65.2,142.8-11.5,172.7-84.6,22.2-54.4,44.7-162.8,1.9-210.5Z"/>
  <path class="st0" d="M584.8,1241.3c-23.4-24.7-29.3-57.5-13-88.1,38-71.3,170.3-41.3,120.5,52.4-20.8,39.2-68.6,76.7-107.4,35.7ZM627.7,1118.5c-61.8,7.7-84.2,90.6-33.4,127.4,35,25.4,73.7-5.5,91.6-35.9,31.7-53.9,4.6-99.3-58.1-91.4Z"/>
  <path d="M685.3,1.3c-6.1,29.1-26.8,64.1-60.7,64.1-27.4,0-91.8-38-113.3-56.1s-5.5-5.1-7.4-8h181.3Z"/>
  <path d="M778.1,520.2c76.5,90.2,37.6,309.7-100.2,320.6-68.8,5.5-117.5-35.3-112.6-105.9,4-58.3,53.5-199.3,98.6-237.2,36.4-30.6,86.9-9.6,114.2,22.5Z"/>
  <path d="M171.8,774.6c58.6-.6,125.9,65.2,141.2,119.3,16.6,58.5-4,153.9-45,199.5-72.6,80.8-173.3-56.7-191.3-123.2-18.7-69,5.4-194.7,95.1-195.6Z"/>
  <path d="M475.2,1514.7c44.4,54.4,50.1,124.1,22.7,188.4-49.4,115.9-139.7,59.2-175.9-29.3-21.7-53-36.6-163.9,12.4-205.2,48.4-40.7,109.3,7.5,140.8,46.1Z"/>
  <path d="M459.3,228.6c42.8,47.7,20.3,156.1-1.9,210.5-29.8,73.1-90.2,149.7-172.7,84.6-77.5-61.2-38.3-152,5.9-220.5,33.7-52.4,105-145.4,168.6-74.5Z"/>
  <path d="M627.7,1118.5c62.8-7.9,89.9,37.5,58.1,91.4-17.9,30.5-56.6,61.3-91.6,35.9-50.7-36.7-28.3-119.6,33.4-127.4Z"/>
</svg>